<?xml version="1.0" standalone="no"?>
<!DOCTYPE svg PUBLIC "-//W3C//DTD SVG 20010904//EN"
 "http://www.w3.org/TR/2001/REC-SVG-20010904/DTD/svg10.dtd">
<svg version="1.0" xmlns="http://www.w3.org/2000/svg"
 width="612.000000pt" height="612.000000pt" viewBox="0 0 612.000000 612.000000"
 preserveAspectRatio="xMidYMid meet">

<g transform="translate(0.000000,612.000000) scale(0.100000,-0.100000)"
fill="#000000" stroke="none">
<path d="M5034 5126 c-405 -184 -647 -267 -1134 -387 -157 -39 -303 -79 -325
-88 -132 -58 -186 -194 -139 -352 19 -63 87 -201 151 -307 25 -40 59 -103 76
-140 29 -60 32 -77 32 -158 0 -74 -4 -100 -24 -141 -22 -49 -26 -52 -85 -69
-74 -22 -282 -25 -366 -6 -52 12 -57 16 -89 69 -69 113 -149 183 -211 183 -59
0 -75 -27 -110 -179 -32 -144 -35 -151 -54 -151 -22 0 -72 -58 -84 -98 -17
-54 -15 -82 7 -125 l18 -36 -33 -11 c-43 -15 -90 -69 -105 -122 -9 -35 -9 -51
3 -85 l16 -43 -35 0 c-93 0 -179 -106 -159 -197 l6 -28 -59 0 c-45 0 -67 -5
-88 -21 -47 -35 -73 -82 -73 -132 0 -41 -2 -44 -22 -38 -61 17 -81 18 -123 2
-51 -20 -105 -76 -105 -111 0 -27 -19 -34 -210 -79 -287 -67 -464 -180 -535
-338 -20 -44 -36 -68 -47 -68 -39 0 -80 -92 -94 -209 -12 -110 18 -152 136
-190 115 -37 246 -52 481 -58 383 -9 489 7 1264 196 198 49 457 112 575 141
118 28 368 89 555 135 187 45 365 88 395 95 98 23 140 56 140 113 0 15 -12 76
-27 135 -23 91 -31 112 -60 138 -18 17 -33 38 -33 46 0 29 -68 250 -108 353
-22 55 -71 170 -110 255 -84 186 -128 308 -116 319 5 4 32 16 59 26 138 49
282 152 312 222 7 18 13 50 13 72 0 36 4 42 50 70 97 60 175 158 207 259 15
47 25 59 85 103 109 81 191 216 204 336 5 45 17 74 51 128 50 79 78 161 88
257 6 58 12 72 51 119 120 145 152 309 61 309 -12 0 -135 -51 -273 -114z m216
-24 c0 -18 -75 -116 -136 -177 -227 -227 -621 -393 -1156 -485 -92 -16 -180
-36 -197 -45 -64 -32 -66 -97 -7 -189 101 -158 174 -348 183 -476 5 -72 -4
-116 -42 -202 -13 -32 32 -21 59 15 104 138 58 393 -125 678 -27 42 -49 84
-49 93 0 22 29 33 130 46 222 30 512 102 710 177 127 47 331 153 405 208 33
25 64 44 70 42 15 -5 7 -44 -21 -106 -97 -214 -341 -363 -751 -456 -170 -39
-198 -48 -198 -65 0 -24 140 -17 280 15 219 49 373 108 493 189 30 20 58 34
62 31 5 -3 -1 -29 -13 -58 -15 -36 -45 -75 -97 -127 -116 -116 -270 -188 -554
-259 -66 -16 -123 -36 -127 -43 -14 -21 20 -39 61 -32 120 19 209 41 314 75
66 22 121 37 124 35 14 -15 -17 -66 -76 -124 -79 -79 -165 -125 -320 -170 -57
-17 -106 -33 -109 -36 -3 -3 -3 -13 1 -22 5 -14 15 -16 59 -10 28 3 81 15 115
26 68 21 82 20 82 -10 0 -74 -213 -188 -475 -254 -111 -28 -312 -62 -320 -54
-3 2 14 25 38 49 57 60 105 154 123 241 25 117 -1 213 -102 389 -127 221 -166
314 -166 399 0 98 53 148 197 181 678 158 1027 273 1390 457 117 59 145 70
145 54z m-2350 -1807 c103 -25 129 -40 130 -79 0 -30 -30 -56 -64 -56 -39 1
-185 35 -196 46 -19 20 -15 77 6 98 19 19 4 21 124 -9z m-95 -294 c94 -44 117
-71 97 -116 -21 -45 -55 -43 -159 8 -84 42 -93 50 -93 75 0 35 26 72 50 72 11
0 58 -18 105 -39z m-219 -240 c106 -78 149 -134 126 -167 -13 -19 -50 -34 -69
-27 -26 9 -151 110 -162 131 -11 22 2 56 31 76 29 21 28 21 74 -13z m-179
-258 c33 -38 65 -79 72 -91 25 -48 -13 -101 -63 -88 -29 7 -156 153 -156 178
0 25 44 68 68 68 11 0 45 -29 79 -67z m-245 -218 c26 -49 47 -99 48 -109 1
-48 -71 -75 -102 -38 -27 31 -98 169 -98 190 0 28 38 53 75 50 27 -3 35 -13
77 -93z m2304 -95 c23 -96 23 -110 -1 -110 -12 0 -501 -118 -1345 -325 -797
-195 -938 -225 -1150 -244 -226 -21 -518 -9 -693 29 -132 29 -142 36 -140 94
1 26 7 70 13 98 14 57 -2 55 160 18 122 -28 475 -39 656 -20 245 24 470 76
2039 464 209 52 393 94 409 93 29 -2 30 -5 52 -97z m-2622 -182 c9 -97 16
-186 16 -197 0 -20 -5 -21 -162 -21 -206 0 -458 33 -458 58 0 16 59 100 95
136 46 46 122 96 195 127 67 29 282 88 292 80 3 -3 13 -86 22 -183z"/>
</g>
</svg>
